<?xml version="1.0" standalone="no"?>
<!DOCTYPE svg PUBLIC "-//W3C//DTD SVG 20010904//EN"
 "http://www.w3.org/TR/2001/REC-SVG-20010904/DTD/svg10.dtd">
<svg version="1.0" xmlns="http://www.w3.org/2000/svg"
 width="969.000000pt" height="969.000000pt" viewBox="0 0 969.000000 969.000000"
 preserveAspectRatio="xMidYMid meet">
<metadata>
Created by potrace 1.11, written by Peter Selinger 2001-2013
</metadata>
<g transform="translate(0.000000,969.000000) scale(0.100000,-0.100000)"
fill="#000000" stroke="none">
<path d="M1218 7325 c-2 -1 -27 -6 -57 -9 -145 -17 -330 -71 -446 -129 -250
-124 -474 -345 -593 -582 -87 -173 -117 -310 -116 -525 0 -85 4 -171 8 -190
29 -141 54 -216 107 -322 87 -175 234 -346 431 -501 32 -26 425 -287 431 -287
2 0 51 -29 108 -63 57 -35 124 -75 149 -89 88 -49 126 -71 190 -108 36 -20 85
-48 110 -62 199 -110 485 -285 572 -351 252 -190 386 -416 394 -667 4 -129
-13 -214 -66 -325 -123 -254 -384 -427 -700 -463 -74 -8 -272 -8 -340 1 -108
14 -124 17 -204 37 -307 79 -602 276 -751 500 -109 164 -206 445 -263 760 l-8
45 -54 1 c-30 1 -60 0 -65 -2 -7 -3 -10 -282 -10 -812 l0 -807 64 0 64 0 17
70 c10 39 22 82 28 97 30 74 124 110 234 89 72 -14 174 -43 333 -94 98 -32
296 -92 335 -102 72 -19 144 -34 190 -40 30 -4 64 -9 75 -12 38 -9 390 -11
460 -3 156 19 167 21 273 50 452 121 830 474 956 893 25 81 29 99 43 187 9 54
9 289 1 345 -45 298 -193 560 -440 780 -111 99 -420 299 -703 456 -44 24 -89
49 -100 56 -11 6 -33 19 -50 27 -29 15 -75 40 -265 146 -342 190 -621 379
-779 525 -156 146 -233 316 -226 503 6 174 78 324 218 461 111 108 223 172
372 212 113 31 332 34 465 7 400 -81 717 -314 888 -654 79 -158 160 -442 185
-649 4 -30 5 -30 68 -33 l65 -3 0 821 0 821 -64 -3 -65 -3 -13 -52 c-16 -63
-55 -141 -81 -165 -31 -28 -92 -49 -142 -49 -44 0 -141 26 -206 56 -140 63
-396 153 -487 170 -13 3 -34 7 -48 10 -106 22 -215 33 -352 33 -75 0 -138 -1
-140 -3z"/>
<path d="M3633 7157 l0 -64 51 -1 c235 -9 365 -48 468 -141 81 -72 115 -155
138 -336 10 -83 8 -3566 -3 -3610 -4 -16 -14 -63 -23 -102 -20 -93 -62 -156
-140 -208 -97 -66 -182 -85 -385 -87 l-105 -1 -2 -63 -1 -64 819 0 820 0 0 64
0 65 -117 1 c-187 1 -251 13 -346 63 -127 67 -168 151 -193 392 -9 87 -11
3397 -3 3387 4 -4 61 -126 127 -272 158 -350 325 -715 373 -818 22 -46 39 -85
39 -87 0 -2 18 -41 39 -87 21 -45 59 -128 84 -183 25 -55 59 -131 77 -170 18
-38 137 -299 265 -580 128 -280 247 -541 265 -580 18 -38 51 -113 75 -165 45
-100 237 -520 299 -653 20 -43 36 -80 36 -82 0 -2 20 -45 44 -97 24 -51 53
-117 66 -145 l22 -53 60 0 59 0 25 58 c28 61 53 118 103 225 67 145 91 198
159 347 73 161 105 231 166 363 20 43 36 80 36 83 0 2 17 41 39 86 21 46 96
209 166 363 70 154 138 304 151 333 13 28 36 78 50 110 15 31 44 95 65 140 22
46 39 86 39 88 0 2 25 56 55 120 30 64 55 118 55 120 0 1 15 35 34 76 18 40
77 168 129 284 53 116 110 242 128 280 17 38 65 143 106 234 93 205 103 227
146 320 19 41 43 95 55 120 11 25 36 80 56 123 20 44 36 83 36 87 0 5 4 11 8
14 10 6 8 -3338 -2 -3419 -20 -162 -45 -228 -110 -295 -90 -92 -217 -132 -423
-131 l-123 0 0 -64 0 -65 1000 0 1000 0 0 64 0 64 -112 1 c-124 1 -168 5 -243
22 -97 22 -192 84 -235 154 -27 43 -58 169 -67 269 -10 106 -10 3475 0 3586
17 204 63 302 177 375 89 56 182 75 373 76 l107 1 0 64 0 64 -669 0 -670 0 -7
-22 c-4 -13 -29 -70 -55 -127 -27 -57 -49 -105 -49 -106 0 -2 -15 -36 -34 -77
-19 -40 -46 -100 -61 -133 -98 -217 -275 -608 -317 -700 -28 -60 -67 -148 -88
-195 -21 -47 -52 -116 -70 -155 -36 -77 -67 -147 -98 -215 -11 -25 -110 -243
-220 -485 -109 -242 -208 -460 -219 -485 -202 -449 -447 -987 -453 -993 -4 -5
-15 9 -25 30 -10 21 -42 89 -71 151 -30 62 -54 115 -54 117 0 4 -78 176 -90
197 -6 10 -43 91 -84 180 -40 90 -182 397 -313 683 -132 286 -250 543 -263
570 -39 85 -140 305 -186 404 -24 51 -44 95 -44 96 0 2 -23 52 -51 112 -28 59
-100 214 -159 343 -138 300 -286 622 -335 728 l-38 82 -667 0 -667 0 0 -63z"/>
</g>
</svg>
